<?xml version="1.0" encoding="UTF-8"?>
<svg width="24px" height="24px" viewBox="0 0 24 24" version="1.1" xmlns="http://www.w3.org/2000/svg" xmlns:xlink="http://www.w3.org/1999/xlink">
    <!-- Generator: Sketch 41 (35326) - http://www.bohemiancoding.com/sketch -->
    <title>Rectangle 40 Copy 3</title>
    <desc>Created with Sketch.</desc>
    <defs></defs>
    <g id="Welcome" stroke="none" stroke-width="1" fill="none" fill-rule="evenodd">
        <g id="lest_site_v04_mobile_01_menu" transform="translate(-272.000000, -19.000000)" fill="#000000">
            <path d="M282.097656,29.1503906 L271.089273,29.1503906 C269.995497,29.1503906 269.097656,30.0458211 269.097656,31.1503906 C269.097656,32.262661 269.989334,33.1503906 271.089273,33.1503906 L282.097656,33.1503906 L282.097656,44.1587736 C282.097656,45.2525502 282.993087,46.1503906 284.097656,46.1503906 C285.209927,46.1503906 286.097656,45.2587133 286.097656,44.1587736 L286.097656,33.1503906 L297.106039,33.1503906 C298.199816,33.1503906 299.097656,32.2549601 299.097656,31.1503906 C299.097656,30.0381203 298.205979,29.1503906 297.106039,29.1503906 L286.097656,29.1503906 L286.097656,18.1420077 C286.097656,17.048231 285.202226,16.1503906 284.097656,16.1503906 C282.985386,16.1503906 282.097656,17.0420679 282.097656,18.1420077 L282.097656,29.1503906 Z" id="Rectangle-40-Copy-3" transform="translate(284.097656, 31.150391) rotate(-315.000000) translate(-284.097656, -31.150391) "></path>
        </g>
    </g>
</svg>