<?xml version="1.0" encoding="UTF-8"?>
<svg width="131px" height="185px" viewBox="0 0 131 185" version="1.1" xmlns="http://www.w3.org/2000/svg" xmlns:xlink="http://www.w3.org/1999/xlink">
    <!-- Generator: Sketch 41 (35326) - http://www.bohemiancoding.com/sketch -->
    <title>Page 1 Copy</title>
    <desc>Created with Sketch.</desc>
    <defs></defs>
    <g id="Welcome" stroke="none" stroke-width="1" fill="none" fill-rule="evenodd">
        <g id="lest_site_v04" transform="translate(-172.000000, -93.000000)">
            <g id="Page-1-Copy" transform="translate(172.000000, 93.000000)">
                <polygon id="Fill-1" fill="#E30613" points="0.570982301 113.089075 70.5919115 113.089075 70.5919115 0.730873134 0.570982301 0.730873134"></polygon>
                <path d="M37.0595973,40.667806 L47.316823,40.667806 L47.316823,31.2996642 L37.0595973,31.2996642 L37.0595973,40.667806 Z M24.5842566,40.667806 L34.7062965,40.667806 L34.7062965,31.2996642 L24.5842566,31.2996642 L24.5842566,40.667806 Z M37.0595973,29.0830672 L49.6381062,29.0830672 L49.6381062,44.8985224 L47.316823,44.8985224 L47.316823,42.9172612 L37.0595973,42.9172612 L37.0595973,54.0988209 L34.7062965,54.0988209 L34.7062965,42.9172612 L24.5842566,42.9172612 L24.5842566,45.0663657 L22.3305664,45.0663657 L22.3305664,29.0830672 L34.7062965,29.0830672 L34.7062965,22.937694 L37.7328584,23.1392836 C37.6990619,23.3746194 37.4971726,23.5424627 37.0595973,23.6099552 L37.0595973,29.0830672 Z" id="Fill-3" fill="#FFFFFF"></path>
                <path d="M42.7432726,84.8566799 C42.0371044,83.7821276 40.5571752,82.1028067 39.2791354,80.9279037 L40.7590646,80.1215455 C42.0709009,81.2635903 43.5837372,82.8416724 44.3237018,83.9162246 L42.7432726,84.8566799 Z M36.9258345,85.4614485 L45.6355381,85.4614485 L45.6355381,87.4427097 L26.7024053,87.4427097 L26.7024053,85.4614485 L34.8073301,85.4614485 L34.8073301,79.2823291 L28.216131,79.2823291 L28.216131,77.3685604 L34.8073301,77.3685604 L34.8073301,72.0970381 L27.2404805,72.0970381 L27.2404805,70.1486351 L44.8955735,70.1486351 L44.8955735,72.0970381 L36.9258345,72.0970381 L36.9258345,77.3685604 L44.0551088,77.3685604 L44.0551088,79.2823291 L36.9258345,79.2823291 L36.9258345,85.4614485 Z M24.1463257,90.7667172 L47.8883389,90.7667172 L47.8883389,67.0262172 L24.1463257,67.0262172 L24.1463257,90.7667172 Z M21.9273212,64.8771127 L50.2096221,64.8771127 L50.2096221,94.52765 L47.8883389,94.52765 L47.8883389,92.8820754 L24.1463257,92.8820754 L24.1463257,94.52765 L21.9273212,94.52765 L21.9273212,64.8771127 Z" id="Fill-4" fill="#FFFFFF"></path>
                <path d="M36.8024774,127.856531 L36.8024774,147.158508 L35.3732429,147.158508 L35.3732429,129.096262 L26.3478093,129.096262 L25.933358,139.98565 C25.8835527,141.438516 25.739473,142.646277 25.501119,143.609822 C25.262765,144.573366 24.9425881,145.350419 24.5423668,145.937426 C24.1403668,146.52621 23.6707739,146.939157 23.1318093,147.177157 C22.5919553,147.414269 21.9845084,147.534157 21.3076898,147.534157 C20.5801765,147.534157 19.903358,147.396508 19.2763447,147.120322 L19.2763447,145.731396 C19.62765,145.907232 19.9540527,146.026232 20.2546633,146.088396 C20.5552739,146.151449 20.8807872,146.182531 21.2329819,146.182531 C21.7337031,146.182531 22.1783934,146.075963 22.567942,145.862829 C22.9557119,145.650583 23.2883403,145.299799 23.5640482,144.811366 C23.8397562,144.322934 24.0532075,143.67909 24.2035128,142.877172 C24.3538181,142.077031 24.4543181,141.075299 24.5041235,139.872866 L24.9559288,127.856531 L36.8024774,127.856531 Z" id="Fill-5" fill="#1D1D1B"></path>
                <polygon id="Fill-6" fill="#1D1D1B" points="54.8922996 129.808663 54.8549456 129.808663 42.7816049 147.158686 41.0144058 147.158686 41.0144058 127.856708 42.4436403 127.856708 42.4436403 145.281328 42.4809942 145.281328 54.5160916 127.856708 56.3206447 127.856708 56.3206447 147.158686 54.8922996 147.158686"></polygon>
                <polygon id="Fill-7" fill="#1D1D1B" points="74.4109115 137.507164 61.9622522 137.507164 61.9622522 147.158597 60.5330177 147.158597 60.5330177 127.856619 61.9622522 127.856619 61.9622522 136.267433 74.4109115 136.267433 74.4109115 127.856619 75.8392566 127.856619 75.8392566 147.158597 74.4109115 147.158597"></polygon>
                <polygon id="Fill-8" fill="#1D1D1B" points="81.4816646 147.158775 80.0524301 147.158775 80.0524301 127.856797 92.764346 127.856797 92.764346 129.09564 81.4816646 129.09564"></polygon>
                <path d="M103.632843,145.919487 C105.362688,145.919487 106.690533,145.562487 107.619046,144.849375 C108.545781,144.135375 109.010927,143.102562 109.010927,141.750935 C109.010927,140.473905 108.571573,139.460629 107.693754,138.709331 C106.815936,137.958032 105.512993,137.582383 103.783148,137.582383 L96.4119624,137.582383 L96.4119624,145.919487 L103.632843,145.919487 Z M96.4119624,129.096084 L96.4119624,136.34354 L103.707551,136.34354 C105.136785,136.34354 106.258294,136.030054 107.073856,135.403972 C107.888529,134.778778 108.295865,133.902263 108.295865,132.775316 C108.295865,131.574659 107.90098,130.659957 107.11121,130.033875 C106.32144,129.408681 105.199931,129.096084 103.745794,129.096084 L96.4119624,129.096084 Z M94.9818385,147.159219 L94.9818385,127.856353 L103.858746,127.856353 C105.763799,127.856353 107.217936,128.276405 108.221157,129.113846 C109.223489,129.953062 109.725989,131.111092 109.725989,132.587935 C109.725989,133.78948 109.398697,134.74148 108.74767,135.442159 C108.095754,136.142838 107.230387,136.606405 106.152458,136.831972 L106.152458,136.906569 C107.481192,137.157002 108.527993,137.676517 109.292861,138.464226 C110.057728,139.253711 110.439272,140.361122 110.439272,141.789122 C110.439272,143.516398 109.843387,144.843159 108.653396,145.769405 C107.462515,146.695651 105.801153,147.159219 103.670197,147.159219 L94.9818385,147.159219 Z" id="Fill-9" fill="#1D1D1B"></path>
                <path d="M114.275882,137.507164 C114.275882,138.658978 114.439528,139.767276 114.765041,140.830284 C115.090554,141.895067 115.567262,142.839963 116.194276,143.666746 C116.8204,144.491754 117.597718,145.148918 118.525342,145.637351 C119.452966,146.125784 120.519333,146.369112 121.722665,146.369112 C122.926886,146.369112 123.991475,146.125784 124.919988,145.637351 C125.846723,145.148918 126.624041,144.491754 127.251054,143.666746 C127.878068,142.839963 128.353886,141.895067 128.680289,140.830284 C129.005802,139.767276 129.169448,138.658978 129.169448,137.507164 C129.169448,136.356239 129.005802,135.24794 128.680289,134.184045 C128.353886,133.120149 127.878068,132.174366 127.251054,131.34847 C126.624041,130.522575 125.846723,129.86541 124.919988,129.377866 C123.991475,128.889433 122.926886,128.645216 121.722665,128.645216 C120.519333,128.645216 119.452966,128.889433 118.525342,129.377866 C117.597718,129.86541 116.8204,130.522575 116.194276,131.34847 C115.567262,132.174366 115.090554,133.120149 114.765041,134.184045 C114.439528,135.24794 114.275882,136.356239 114.275882,137.507164 M112.847537,137.507164 C112.847537,136.130672 113.040532,134.834993 113.430081,133.621015 C113.817851,132.407037 114.388833,131.336925 115.141249,130.409791 C115.892776,129.484433 116.8204,128.751784 117.92501,128.212731 C119.027842,127.675455 120.29432,127.405485 121.722665,127.405485 C123.15101,127.405485 124.417488,127.675455 125.521209,128.212731 C126.624041,128.751784 127.552554,129.484433 128.304081,130.409791 C129.056497,131.336925 129.62659,132.407037 130.015249,133.621015 C130.403908,134.834993 130.598683,136.130672 130.598683,137.507164 C130.598683,138.884545 130.403908,140.187328 130.015249,141.412851 C129.62659,142.639261 129.056497,143.709373 128.304081,144.624075 C127.552554,145.537888 126.624041,146.263433 125.521209,146.801597 C124.417488,147.339761 123.15101,147.608843 121.722665,147.608843 C120.29432,147.608843 119.027842,147.339761 117.92501,146.801597 C116.8204,146.263433 115.892776,145.537888 115.141249,144.624075 C114.388833,143.709373 113.817851,142.639261 113.430081,141.412851 C113.040532,140.187328 112.847537,138.884545 112.847537,137.507164" id="Fill-10" fill="#1D1D1B"></path>
                <path d="M34.6024168,169.996828 C34.3133681,169.321015 33.9255982,168.739336 33.4364389,168.250903 C32.9472796,167.76247 32.3709611,167.375276 31.7065938,167.086657 C31.0422265,166.798925 30.3084876,166.654172 29.5062664,166.654172 C28.6791425,166.654172 27.9320628,166.798925 27.268585,167.086657 C26.6042177,167.375276 26.0332354,167.768687 25.5574168,168.269552 C25.0807088,168.770418 24.7045009,169.352097 24.4296823,170.015478 C24.153085,170.679746 23.9903283,171.385754 23.940523,172.137052 L35.1102531,172.137052 C35.0595584,171.385754 34.8905761,170.67353 34.6024168,169.996828 M35.3735097,182.464299 C33.9184832,183.566381 32.0881381,184.116978 29.8824743,184.116978 C28.3278372,184.116978 26.9804257,183.866545 25.8393504,183.366567 C24.6982752,182.864813 23.739523,182.164134 22.9622044,181.263642 C22.1848858,180.361373 21.6023416,179.285933 21.2136823,178.033769 C20.8241336,176.782493 20.605346,175.417545 20.5555407,173.939813 C20.5555407,172.46297 20.780554,171.111343 21.2323593,169.884045 C21.6841646,168.657634 22.3165142,167.593739 23.1320761,166.692358 C23.9458593,165.790978 24.9117265,165.091187 26.0270097,164.589433 C27.1431823,164.089455 28.3651912,163.838134 29.6939257,163.838134 C31.4246602,163.838134 32.859231,164.195134 34.0003062,164.909134 C35.1413814,165.622246 36.056554,166.529843 36.7458239,167.631037 C37.4350938,168.733119 37.9118018,169.935552 38.1750584,171.23656 C38.438315,172.538455 38.5450407,173.777299 38.494346,174.953978 L23.940523,174.953978 C23.914731,175.805627 24.015231,176.612873 24.2411336,177.376604 C24.4670363,178.140336 24.8299035,178.816149 25.3315142,179.404045 C25.8331248,179.992828 26.4725894,180.461724 27.249908,180.812507 C28.0263372,181.163291 28.9423991,181.338239 29.9954257,181.338239 C31.3490628,181.338239 32.4581204,181.025642 33.3234876,180.39956 C34.1888549,179.773478 34.7589478,178.822366 35.0346558,177.545336 L38.1937354,177.545336 C37.7677221,179.722858 36.8267575,181.363104 35.3735097,182.464299" id="Fill-11" fill="#E30613"></path>
                <path d="M53.8388283,173.677392 C53.4377177,173.976668 52.9112044,174.194243 52.2601779,174.331004 C51.6073726,174.468653 50.9252177,174.581437 50.2101558,174.667578 C49.4950938,174.755496 48.7746956,174.854959 48.0471823,174.966854 C47.319669,175.07875 46.6677531,175.259914 46.0914345,175.508571 C45.5142265,175.757228 45.0446336,176.112451 44.6817664,176.573354 C44.3171204,177.034257 44.1356867,177.663004 44.1356867,178.460481 C44.1356867,178.984437 44.2424124,179.425802 44.4558637,179.787243 C44.6684257,180.148683 44.945023,180.440854 45.2829876,180.665534 C45.6218416,180.889325 46.0167265,181.05184 46.4676425,181.151302 C46.9194478,181.250765 47.3952664,181.300496 47.896877,181.300496 C48.9499035,181.300496 49.8535142,181.157519 50.6050407,180.871563 C51.3574566,180.58472 51.9711292,180.22328 52.4478372,179.787243 C52.9236558,179.351205 53.2749611,178.876981 53.5008637,178.367235 C53.7267664,177.856601 53.8388283,177.377049 53.8388283,176.928578 L53.8388283,173.677392 Z M59.0292531,183.628989 C58.4778372,183.953131 57.7129699,184.117422 56.7355407,184.117422 C55.9075274,184.117422 55.2493858,183.88475 54.7602265,183.422071 C54.2710673,182.959392 54.027377,182.201877 54.027377,181.150414 C53.1495584,182.201877 52.1276602,182.959392 50.9625717,183.422071 C49.7965938,183.88475 48.5363416,184.117422 47.1827044,184.117422 C46.3039965,184.117422 45.4706469,184.017071 44.6817664,183.816369 C43.8911071,183.615668 43.2080628,183.303959 42.6317442,182.87769 C42.0545363,182.45231 41.5973947,181.895496 41.2585407,181.20725 C40.9205761,180.518116 40.7515938,179.686004 40.7515938,178.709138 C40.7515938,177.607944 40.9392531,176.706563 41.3154611,176.004996 C41.691669,175.305205 42.1861646,174.735071 42.8007265,174.296369 C43.4152885,173.859444 44.1170097,173.52731 44.9067796,173.301743 C45.6965496,173.076175 46.5049965,172.887907 47.3330097,172.737825 C48.2099389,172.563765 49.0441779,172.432332 49.8339478,172.344414 C50.6237177,172.256496 51.3192133,172.132168 51.9213239,171.968765 C52.5234345,171.80625 52.9992531,171.56825 53.3505584,171.254765 C53.7009743,170.942168 53.8770717,170.484817 53.8770717,169.884489 C53.8770717,169.182922 53.7454434,168.62078 53.4821867,168.194511 C53.2189301,167.769131 52.8800761,167.443213 52.4665142,167.218534 C52.0529522,166.992966 51.5886956,166.842884 51.075523,166.767399 C50.5605717,166.692802 50.0527354,166.654616 49.5520142,166.654616 C48.1974876,166.654616 47.0697531,166.912153 46.1670319,167.424563 C45.2643106,167.937862 44.7751513,168.907623 44.7004434,170.334735 L41.5031204,170.334735 C41.553815,169.13319 41.8046204,168.119026 42.2555363,167.294019 C42.7064522,166.467235 43.3085628,165.797638 44.0609788,165.28434 C44.8133947,164.771929 45.6716469,164.401608 46.6366248,164.176929 C47.6016027,163.951362 48.6359522,163.838578 49.7405628,163.838578 C50.617492,163.838578 51.4881956,163.900743 52.3535628,164.025959 C53.2189301,164.150287 54.0024743,164.406937 54.7041956,164.794131 C55.4059168,165.182213 55.9697841,165.724817 56.3966867,166.424608 C56.8227,167.123511 57.0361513,168.03466 57.0361513,169.158944 L57.0361513,179.127414 C57.0361513,179.876937 57.079731,180.426646 57.1677796,180.775653 C57.2549389,181.125549 57.5493239,181.300496 58.0509345,181.300496 C58.3275319,181.300496 58.6530451,181.249877 59.0292531,181.150414 L59.0292531,183.628989 Z" id="Fill-12" fill="#E30613"></path>
                <path d="M64.4445133,179.366569 C64.7451239,179.855001 65.1400088,180.243084 65.6291681,180.530815 C66.1183274,180.818546 66.668854,181.025464 67.2834159,181.150681 C67.8979779,181.275897 68.5312168,181.338061 69.1831327,181.338061 C69.6847434,181.338061 70.2103673,181.300763 70.7626726,181.225278 C71.3140885,181.150681 71.8210354,181.013031 72.285292,180.81233 C72.7495487,180.611628 73.1319823,180.317681 73.4325929,179.929599 C73.7332035,179.541516 73.8835088,179.047755 73.8835088,178.446539 C73.8835088,177.619755 73.5704469,176.994561 72.944323,176.569181 C72.3173097,176.142912 71.5337655,175.798345 70.5928009,175.536367 C69.6527257,175.273501 68.6308274,175.035501 67.5279956,174.822367 C66.4251637,174.611009 65.4032655,174.309957 64.4631903,173.920987 C63.523115,173.533793 62.7386814,172.988524 62.1125575,172.287845 C61.4855442,171.587166 61.1715929,170.611188 61.1715929,169.358136 C61.1715929,168.382158 61.3912699,167.54383 61.8306239,166.842263 C62.2690885,166.141584 62.8329558,165.572337 63.523115,165.134524 C64.2114956,164.695822 64.9897035,164.369904 65.8541814,164.157658 C66.7195487,163.945412 67.5778009,163.838845 68.4307168,163.838845 C69.5344381,163.838845 70.5492212,163.932091 71.4768451,164.12036 C72.404469,164.30774 73.2262566,164.633658 73.9404292,165.096337 C74.6546018,165.559904 75.2246947,166.185099 75.6515973,166.973696 C76.0776106,167.763181 76.3284159,168.745375 76.4031239,169.922054 L73.2075796,169.922054 C73.156885,169.295972 72.9932389,168.776457 72.7184204,168.363509 C72.441823,167.950561 72.0914071,167.618427 71.6653938,167.367994 C71.2384912,167.118449 70.7680088,166.936397 70.2548363,166.823613 C69.7407743,166.71083 69.2204867,166.654882 68.6939735,166.654882 C68.2172655,166.654882 67.7352212,166.693069 67.2460619,166.766778 C66.757792,166.842263 66.3122124,166.973696 65.9102124,167.161964 C65.5091018,167.349345 65.1835885,167.599778 64.9336726,167.913263 C64.6828673,168.22586 64.5574646,168.632591 64.5574646,169.133457 C64.5574646,169.684942 64.7513496,170.141404 65.1400088,170.504621 C65.5286681,170.867837 66.0231637,171.168001 66.6252743,171.405113 C67.227385,171.644001 67.9042035,171.842927 68.6557301,172.00633 C69.408146,172.169733 70.1605619,172.338464 70.9120885,172.512524 C71.7151991,172.68836 72.4987434,172.901494 73.2636106,173.151927 C74.0275885,173.401472 74.7044071,173.733606 75.2940664,174.146554 C75.8828363,174.559501 76.3595442,175.079904 76.7241903,175.705099 C77.0870575,176.331181 77.2684912,177.107345 77.2684912,178.033591 C77.2684912,179.21027 77.0248009,180.187136 76.5356416,180.962412 C76.0464823,181.738576 75.4070177,182.364658 74.6172478,182.83977 C73.8274779,183.31577 72.937208,183.647016 71.9473274,183.835285 C70.9565575,184.022666 69.9729027,184.117688 68.9945841,184.117688 C67.9166549,184.117688 66.888531,184.004904 65.9102124,183.779337 C64.9336726,183.55377 64.0683053,183.184337 63.3158894,182.671039 C62.5643628,182.158628 61.9622522,181.482815 61.5104469,180.64271 C61.059531,179.804382 60.8087257,178.78489 60.758031,177.582457 L63.955354,177.582457 C63.9802566,178.284024 64.1430133,178.878136 64.4445133,179.366569" id="Fill-13" fill="#E30613"></path>
                <path d="M89.1161071,164.288647 L89.1161071,167.105572 L85.2428549,167.105572 L85.2428549,179.160095 C85.2428549,179.535744 85.2730938,179.835908 85.3362398,180.061475 C85.3984965,180.287043 85.5176735,180.46199 85.6928814,180.587207 C85.8689788,180.712423 86.112669,180.793237 86.4275097,180.831423 C86.7396823,180.868722 87.1470186,180.887371 87.6495186,180.887371 L89.1161071,180.887371 L89.1161071,183.703408 L86.6712,183.703408 C85.8431867,183.703408 85.1343504,183.64746 84.5464699,183.534677 C83.9568106,183.421893 83.4801027,183.214975 83.1172354,182.915699 C82.7534788,182.615535 82.4839965,182.189266 82.3087885,181.638669 C82.1326912,181.088072 82.0455319,180.36164 82.0455319,179.460259 L82.0455319,167.105572 L78.7352575,167.105572 L78.7352575,164.288647 L82.0455319,164.288647 L82.0455319,158.468304 L85.2428549,158.468304 L85.2428549,164.288647 L89.1161071,164.288647 Z" id="Fill-14" fill="#E30613"></path>
            </g>
        </g>
    </g>
</svg>