<?xml version="1.0" encoding="UTF-8"?>
<svg width="157px" height="157px" viewBox="0 0 157 157" version="1.1" xmlns="http://www.w3.org/2000/svg" xmlns:xlink="http://www.w3.org/1999/xlink">
    <!-- Generator: Sketch 41 (35326) - http://www.bohemiancoding.com/sketch -->
    <title>Group 7</title>
    <desc>Created with Sketch.</desc>
    <defs>
        <polyline id="path-1" points="0 0.0262561544 61.7520299 0.0262561544 61.7520299 62.1856287 0 62.1856287"></polyline>
    </defs>
    <g id="Welcome" stroke="none" stroke-width="1" fill="none" fill-rule="evenodd">
        <g id="lest_site_v04" transform="translate(-486.000000, -2105.000000)">
            <g id="Group-7" transform="translate(487.000000, 2106.000000)">
                <ellipse id="Oval-3-Copy-17" stroke="#E30714" stroke-width="2" fill="#FFFFFF" cx="77.1386501" cy="77.1616528" rx="77.1386501" ry="77.1616528"></ellipse>
                <g id="Page-1-Copy-3" transform="translate(47.000000, 44.661653)">
                    <mask id="mask-2" fill="white">
                        <use xlink:href="#path-1"></use>
                    </mask>
                    <g id="Clip-2"></g>
                    <path d="M28.8160595,0.0257033932 L32.9938505,0.0257033932 C33.1118052,0.0768337991 33.2270168,0.165275582 33.3490862,0.174948902 C39.5951991,0.672433932 46.3721083,6.48886307 44.7687473,14.9751285 C44.4683742,16.5684625 44.5520398,18.1769975 44.8976745,19.8421904 C45.3201169,21.8763514 44.5122644,23.8953115 43.5878287,25.7180414 C43.026858,26.8221818 42.6784802,27.9359955 42.4604012,29.1313415 C42.0105274,31.5828371 41.3562903,33.9431272 39.6925804,35.9137207 C39.301684,36.3766582 39.0054256,37.0634639 38.972508,37.6645916 C38.8764984,39.380915 38.9039297,41.1069116 38.9519345,42.8273807 C38.9766227,43.6841605 39.4168955,44.3834033 40.2055462,44.7620447 C40.9256185,45.1075204 41.6744937,45.39772 42.4219973,45.6810101 C46.4146268,47.1928118 50.4374308,48.6286089 54.3943996,50.2274705 C56.5971351,51.1160341 58.7724393,52.1704259 60.421062,53.9724273 C60.9120827,54.5086056 61.2110842,55.2879988 61.4154476,56.0093521 C61.6376413,56.7956548 61.6486138,57.6413794 61.7528529,58.4622297 L61.7528529,62.185076 L-0.000548626524,62.185076 C0.0762590868,60.5544306 0.228502947,59.026046 0.199700055,57.5004253 C0.158553065,55.370913 1.04595647,53.8300913 2.80704761,52.7356242 C3.28435268,52.4385151 3.7438274,52.112386 4.23347657,51.8346236 C7.71314029,49.8612663 11.4438007,48.4807453 15.1895482,47.1361538 C17.2729575,46.3899263 19.3673392,45.6741006 21.4329181,44.8808884 C22.3930145,44.5119203 22.8703196,43.6979795 22.8867784,42.6615524 C22.910095,41.1276402 22.9896458,39.5868185 22.8703196,38.0625796 C22.8113422,37.303915 22.5301711,36.4416076 22.0638386,35.8556808 C20.6278087,34.0481518 19.9337961,31.9739156 19.4852939,29.7601073 C19.2617286,28.6601126 19.1286867,27.4758218 18.6116062,26.5167812 C17.8023821,25.0215623 17.3072466,23.4531026 16.9849285,21.8224572 C16.8326847,21.0513554 16.7627348,20.1697014 16.9863001,19.4414386 C17.3442789,18.283404 17.2619849,17.1751179 17.1591175,16.0198471 C17.015103,14.3892017 16.6790693,12.7088079 16.9094924,11.1210015 C17.6871705,5.74678124 20.8705759,2.33486307 25.9590869,0.697308184 C26.8862657,0.397435263 27.8628209,0.245425948 28.8160595,0.0257033932" id="Fill-1" fill="#E10E17" mask="url(#mask-2)"></path>
                </g>
            </g>
        </g>
    </g>
</svg>