<?xml version="1.0" encoding="UTF-8"?>
<svg width="157px" height="157px" viewBox="0 0 157 157" version="1.1" xmlns="http://www.w3.org/2000/svg" xmlns:xlink="http://www.w3.org/1999/xlink">
    <!-- Generator: Sketch 41 (35326) - http://www.bohemiancoding.com/sketch -->
    <title>Group 6</title>
    <desc>Created with Sketch.</desc>
    <defs>
        <polygon id="path-1" points="0 0.417606662 89.6404318 0.417606662 89.6404318 64.0419162 0 64.0419162"></polygon>
    </defs>
    <g id="Welcome" stroke="none" stroke-width="1" fill="none" fill-rule="evenodd">
        <g id="lest_site_v04" transform="translate(-201.000000, -2099.000000)">
            <g id="Group-6" transform="translate(202.000000, 2100.000000)">
                <ellipse id="Oval-3-Copy-7" stroke="#E30714" stroke-width="2" fill="#FFFFFF" cx="77.1386501" cy="77.1616528" rx="77.1386501" ry="77.1616528"></ellipse>
                <g id="Page-1-Copy-2" transform="translate(34.329498, 44.550898)">
                    <g id="Group-3">
                        <mask id="mask-2" fill="white">
                            <use xlink:href="#path-1"></use>
                        </mask>
                        <g id="Clip-2"></g>
                        <path d="M43.1855396,10.8302885 C44.80885,11.3746448 46.5525047,11.698857 48.0327392,12.5033836 C52.4239677,14.8942818 53.9617,19.0756853 53.4656142,23.8281291 C53.311841,25.3157695 53.000283,26.7873993 52.7488972,28.3377474 C53.464277,28.5405468 53.6514792,29.233 53.5057289,29.9574742 C53.1446961,31.7586531 52.7595945,33.5611662 52.2394398,35.3196504 C52.0910152,35.8226463 51.4438305,36.1788795 50.8247261,36.8046224 C50.7204278,37.5504439 50.5920606,38.6471617 50.4061955,39.73454 C50.1935873,40.9700153 49.6814556,42.0493885 48.8136398,42.9993436 C48.4432468,43.4036082 48.2052326,44.061372 48.1784895,44.6164019 C48.1290146,45.6851014 48.2867993,46.7631403 48.3309255,47.8371766 C48.3777261,48.9525734 48.9754359,49.609003 50.0170824,49.8625022 C52.3771672,50.4362111 54.7359148,51.0099199 57.1080339,51.5275921 C62.9260106,52.7990909 67.2503812,57.8557339 67.2731129,63.4607358 L67.2731129,64.0424499 L15.7443728,64.0424499 C15.7978591,60.3053372 17.053451,57.1579439 19.8133461,54.6589749 C21.996926,52.6803466 24.6979861,51.8851594 27.5113676,51.3341321 C29.1106092,51.0205936 30.7151994,50.6977156 32.2770005,50.2454195 C34.2840755,49.6623713 34.7199891,49.0206179 34.8430077,46.9459266 C34.8644022,46.5776856 34.8216132,46.2014394 34.871088,45.8385352 C35.0382328,44.6217388 34.7587667,43.6237522 33.9083339,42.6457788 C32.5417579,41.0780861 32.5537923,39.0100659 32.2649661,37.0727979 C32.2382229,36.8913458 32.2408973,36.7058911 32.2261885,36.4497234 C31.0655349,36.3670026 30.6804333,35.4877605 30.4397448,34.5498132 C30.096095,33.2129382 29.7898857,31.8627212 29.54786,30.5044989 C29.3914125,29.6212541 29.3432748,28.6993174 30.3875956,28.2857133 C29.4876879,25.1249779 29.0343912,21.9442294 29.9436589,18.7874966 C31.2594229,14.2178391 34.6237137,11.8963196 39.1459838,11.0210801 C39.383998,10.9743829 39.6153264,10.8943305 39.8493291,10.8302885 L43.1855396,10.8302885 Z" id="Fill-1" fill="#E20E18" mask="url(#mask-2)"></path>
                    </g>
                    <path d="M0.00013371585,53.7353037 C0.625923896,51.8033726 1.57530643,50.1049276 3.31762396,48.925489 C4.70826881,47.9835391 6.27943005,47.6006218 7.88535741,47.2844149 C8.03645632,47.2537281 8.19022955,47.2377176 8.3399913,47.201694 C11.2630198,46.4812225 11.5959723,45.9995739 11.2670313,42.9469092 C10.2735225,42.8468438 9.27332794,42.7614545 8.27714485,42.6400417 C7.88402025,42.5920103 7.49223281,42.4852738 7.1124798,42.3651952 C5.0144781,41.6980919 5.12947374,41.6714077 5.91572294,39.703453 C6.47331803,38.3105414 6.73138962,36.7401802 6.82097924,35.2311926 C6.9640552,32.7802551 6.73272678,30.306636 6.88382569,27.8570327 C7.27962461,21.4515069 11.7564313,19.0606087 17.0194871,19.8557958 C21.8680239,20.5909437 24.3484529,23.699645 24.4460655,28.7856405 C24.4848431,30.7869504 24.4300196,32.7909287 24.4594371,34.7935728 C24.4901917,36.8429141 24.7843666,38.8402214 25.9262999,40.6133819 C26.29803,41.1910934 26.0921076,41.5966922 25.5264895,41.7527943 C24.0275349,42.1677326 22.5232315,42.6106892 20.9895107,42.8415069 C20.1537867,42.9669223 19.8876921,43.1830638 19.94519,44.0169429 C20.0896031,46.0822947 20.0628599,46.06495 22.0779578,46.5719485 C22.9685053,46.7960952 23.8617272,47.0575997 24.7001256,47.4245065 C25.015695,47.5619298 25.1801655,48.0449126 25.4128311,48.370459 C25.099936,48.5132191 24.796401,48.7600473 24.4768201,48.7813946 C21.2288621,49.0028729 18.73105,50.6492839 16.5327615,52.8774089 C16.2746899,53.1389134 15.9791778,53.4110915 15.8467991,53.7366379 C15.322633,55.0268157 14.3732505,55.2683071 13.0628351,55.2442914 C8.71038421,55.164239 4.3539218,55.2149388 0.00013371585,55.2149388 L0.00013371585,53.7353037 Z" id="Fill-4" fill="#E20E18"></path>
                    <path d="M85.7578583,16.6003318 C85.6428627,15.7824631 85.5666447,14.8124949 85.3607223,13.8718793 C84.261578,8.83391523 79.124215,3.82530371 72.2712777,4.91935311 C72.0907613,4.94737144 71.8661186,4.90200842 71.7069968,4.81261658 C69.9767137,3.84264839 68.1568409,3.65585947 66.2821447,4.24691299 C62.3094468,5.49973297 60.4080074,10.2975399 62.3508987,14.0640051 C62.46322,14.2828149 62.4993233,14.5843456 62.4592086,14.8298396 C62.2639834,15.9972704 62.2292173,17.1673696 62.3682818,18.338803 C62.7119315,21.2473733 63.9822321,23.6956424 66.1176742,25.6916155 C68.6836814,28.0891847 71.717694,29.1071843 75.2210493,28.7309381 C75.6810318,28.6815724 76.120957,28.5788385 76.610357,28.8203299 C78.2323303,29.6195196 79.9278473,29.6835616 81.6247014,29.0631555 C85.2952015,27.7236121 87.0655993,23.563556 85.6134452,19.7717408 C85.5131583,19.5102363 85.5051354,19.1953636 85.5251928,18.9111776 C85.5760048,18.190706 85.6669316,17.4742371 85.7578583,16.6003318 M67.2850136,0.417740082 L69.4217929,0.417740082 C69.4846393,0.441755801 69.5461486,0.471108346 69.6103322,0.488453031 C70.5436689,0.737949663 71.4743312,0.991448915 72.409005,1.2316061 C72.6015558,1.28097174 72.8101525,1.31699532 73.0067148,1.29965064 C74.4655548,1.16889839 75.9056745,1.30765588 77.3310854,1.60518394 C83.899208,2.97674832 89.9324672,9.59574719 89.1609267,18.0599538 C89.1315092,18.3721581 89.0312223,18.6963703 89.0860458,18.9925642 C89.2358076,19.805096 89.4510901,20.6056199 89.6396295,21.4101465 L89.6396295,23.6249295 C89.584806,23.8864339 89.5326568,24.1492726 89.4764961,24.4107771 C88.5779256,28.6055226 86.0854622,31.3566566 81.9817227,32.6361607 C81.4802883,32.7922629 80.9507735,32.8616417 80.4359675,32.9723808 L78.297851,32.9723808 C77.395269,32.7295552 76.4913499,32.4853954 75.5874308,32.2452382 C75.5245843,32.2278935 75.4510406,32.2465724 75.3841827,32.2532435 C73.3998394,32.4640481 71.4542738,32.2719223 69.5461486,31.6982135 C64.0290326,30.0424631 58.4771505,24.3694167 58.7780112,16.3481667 C58.8127773,15.4369036 58.7953943,14.5816772 58.4731391,13.7184455 C58.2672167,13.166084 58.2070445,12.5616884 58.0800145,11.9799744 L58.0800145,9.76519143 C58.1335008,9.50101853 58.1829757,9.23551141 58.2377992,8.97133851 C59.1256724,4.70187743 61.6569135,1.93606718 65.8555912,0.709931325 C66.3209223,0.57517646 66.8089852,0.51246875 67.2850136,0.417740082" id="Fill-6" fill="#E20E18"></path>
                    <path d="M74.1993265,25.075212 C72.5933991,25.0431911 71.2495549,24.8964283 70.0100089,24.2786907 C68.4228018,23.4888404 67.3771438,22.2627045 67.0869804,20.4762019 C66.9666362,19.7357173 67.3945269,19.0085747 68.0858378,18.7270571 C68.8092406,18.4321974 69.6890909,18.6456705 70.10361,19.2727476 C70.4031335,19.7250436 70.6558565,20.2133632 70.8845106,20.7070196 C71.3244357,21.6516379 72.0826046,22.1372891 73.0827992,22.2693756 C74.1458402,22.4094673 75.1861495,22.3294149 76.1368692,21.7610429 C76.6142348,21.4755226 76.9739304,21.0939396 77.0661943,20.5269018 C77.1651441,19.9051615 77.0447998,19.3341211 76.4791818,18.9765537 C76.0579768,18.7110466 75.6140402,18.4428711 75.1420233,18.3054478 C73.9639866,17.9598883 72.7592068,17.7130601 71.5771587,17.3795084 C70.9888089,17.2140668 70.4098193,16.9872517 69.8602472,16.717742 C68.3278635,15.9679179 67.3945269,14.7778056 67.3905154,13.0193213 C67.3865039,11.2875211 68.2168794,10.0240275 69.749263,9.23817983 C71.1826969,8.503032 72.7284522,8.27755109 74.3250194,8.33625618 C75.5552052,8.3816192 76.7452763,8.60710011 77.8297118,9.21416411 C78.9422277,9.83723859 79.8006835,10.6871282 80.0707895,11.9893138 C80.2045054,12.6390724 80.0400349,13.2101128 79.526566,13.6544036 C79.0197829,14.0933576 78.4407933,14.2201072 77.8043058,14.0039658 C77.2052588,13.8011664 76.93649,13.2661495 76.6677211,12.7671563 C75.7063041,10.9806536 73.3141276,10.3962711 71.6466909,11.5623677 C70.6892854,12.2334736 70.6665537,13.2261233 71.7015144,13.7771506 C72.4449746,14.17341 73.2994188,14.3935541 74.12712,14.5963535 C75.6929326,14.980605 77.2640938,15.3208277 78.6961906,16.1093438 C80.3021179,16.9939227 80.9212223,18.3988423 80.7901808,20.1439845 C80.6096644,22.5322143 79.0973381,24.1599463 76.599526,24.7630077 C76.3213971,24.829718 76.0392566,24.8950941 75.755779,24.9284493 C75.1580692,24.9964938 74.557685,25.0418568 74.1993265,25.075212" id="Fill-8" fill="#E20E18"></path>
                </g>
            </g>
        </g>
    </g>
</svg>