<?xml version="1.0" encoding="UTF-8"?>
<svg width="157px" height="157px" viewBox="0 0 157 157" version="1.1" xmlns="http://www.w3.org/2000/svg" xmlns:xlink="http://www.w3.org/1999/xlink">
    <!-- Generator: Sketch 41 (35326) - http://www.bohemiancoding.com/sketch -->
    <title>Oval 3 Copy 9 + Page 1 Copy 4</title>
    <desc>Created with Sketch.</desc>
    <defs>
        <polygon id="path-1" points="0 0.941532679 87.8717198 0.941532679 87.8717198 57.5449102 0 57.5449102"></polygon>
        <polyline id="path-3" points="0 0.941532679 87.8717198 0.941532679 87.8717198 57.5449102 0 57.5449102"></polyline>
    </defs>
    <g id="Welcome" stroke="none" stroke-width="1" fill="none" fill-rule="evenodd">
        <g id="lest_site_v04" transform="translate(-775.000000, -2099.000000)">
            <g id="Oval-3-Copy-9-+-Page-1-Copy-4" transform="translate(776.000000, 2100.000000)">
                <ellipse id="Oval-3-Copy-9" stroke="#E30714" stroke-width="2" fill="#FFFFFF" cx="77.4629179" cy="77.1616528" rx="77.1386501" ry="77.1616528"></ellipse>
                <g id="Page-1-Copy-4" transform="translate(31.870293, 47.335329)">
                    <g id="Group-3">
                        <mask id="mask-2" fill="white">
                            <use xlink:href="#path-1"></use>
                        </mask>
                        <g id="Clip-2"></g>
                        <path d="M45.6794578,0.941655115 C47.3962123,1.5207773 49.2410828,1.8648224 50.8065384,2.72187425 C55.4516589,5.26486954 57.0769019,9.71296866 56.5534565,14.7671259 C56.3887359,16.3502231 56.0605149,17.9161793 55.7945217,19.5641675 C56.5522364,19.7808792 56.7486809,20.5167195 56.5949417,21.2880661 C56.213034,23.2041892 55.8067232,25.1215366 55.2564345,26.9923584 C55.0990348,27.5261793 54.4145293,27.9045064 53.7593074,28.5705582 C53.6482735,29.3639433 53.5140567,30.5319825 53.316392,31.6877782 C53.091884,33.0027406 52.5513565,34.1499657 51.6325816,35.1612869 C51.2409127,35.5910372 50.9895613,36.2901466 50.9614978,36.8815124 C50.9078111,38.0177183 51.074972,39.1637191 51.1225579,40.3072711 C51.171364,41.4936758 51.803403,42.1915608 52.9064208,42.4621443 C55.4016326,43.0718755 57.8968444,43.6828311 60.4042577,44.233793 C66.5587067,45.5854862 71.1330583,50.9640987 71.1574613,56.9267309 L71.1574613,57.5450326 L16.6532509,57.5450326 C16.7093779,53.5695364 18.0381239,50.2221367 20.9567286,47.5640516 C23.2676974,45.4593771 26.1240743,44.6133445 29.1012463,44.0268762 C30.7911574,43.6926259 32.4883895,43.3498052 34.140476,42.8686318 C36.2635412,42.2491057 36.725979,41.565913 36.8553152,39.3596166 C36.8784981,38.9678215 36.8321323,38.5674559 36.8845988,38.1817825 C37.0615209,36.8864099 36.7662441,35.8248899 35.8657715,34.7854085 C34.421111,33.1178304 34.4333125,30.9176559 34.1282744,28.855834 C34.1002109,28.6636095 34.1026512,28.4652632 34.0867892,28.1934553 C32.8580957,28.1065258 32.4530051,27.1711149 32.1979932,26.1732617 C31.8343878,24.7505556 31.5098272,23.3143816 31.2535952,21.8684127 C31.0888746,20.9305531 31.0376282,19.9498409 32.1418662,19.5090713 C31.1901473,16.1469794 30.7106274,12.7640733 31.6721075,9.40565435 C33.0643015,4.54372162 36.6234862,2.07541228 41.407704,1.14489884 C41.6590554,1.09470009 41.9030859,1.01021926 42.1507769,0.941655115 L45.6794578,0.941655115 Z" id="Fill-1" fill="#E20E18" mask="url(#mask-2)"></path>
                    </g>
                    <path d="M0,46.5818702 C0.661322634,44.5261701 1.66550811,42.7202394 3.50915848,41.4640462 C4.9794422,40.4625199 6.64251,40.0548081 8.33974208,39.7193335 C8.49958205,39.6875002 8.66308248,39.6691348 8.82048215,39.6311796 C11.9135686,38.8647304 12.2661927,38.3517237 11.9184492,35.1047215 C10.8654577,34.9994266 9.80880564,34.9088239 8.75581407,34.7790418 C8.33852192,34.7276187 7.92489024,34.6149776 7.52346008,34.4864198 C5.3052229,33.7762911 5.426018,33.7481308 6.25694182,31.6557 C6.84627546,30.1730003 7.11958961,28.5029735 7.21354135,26.8978378 C7.36606041,24.2899515 7.12080977,21.6600266 7.28186989,19.054589 C7.70038219,12.2398024 12.4357939,9.69558275 18.0009093,10.5428397 C23.1316504,11.3239813 25.7549782,14.6309771 25.857471,20.0401986 C25.8989562,22.1705847 25.8403888,24.3021951 25.8721128,26.4313567 C25.9050569,28.6119415 26.2149756,30.7374301 27.4229266,32.6229442 C27.8158157,33.2375728 27.5986285,33.6697718 27.0007538,33.8350604 C25.4145556,34.2758299 23.8234768,34.7472084 22.2018942,34.9933048 C21.3172837,35.12676 21.0354284,35.3569396 21.0976562,36.2446005 C21.2489551,38.4411019 21.2221118,38.4215122 23.3537181,38.9614548 C24.2956758,39.200205 25.2400738,39.4781347 26.1259045,39.8687054 C26.4602263,40.0144043 26.6334879,40.5286354 26.8799587,40.8751292 C26.5505176,41.0257254 26.2283973,41.2877384 25.8904151,41.3110013 C22.4556859,41.5473027 19.8128357,43.2981372 17.4872251,45.6684978 C17.2139109,45.9464274 16.9015519,46.2366007 16.7612344,46.5830945 C16.2085053,47.9556019 15.2030997,48.2114931 13.8170065,48.1870059 C9.21337124,48.1013007 4.60607554,48.1551725 0,48.1551725 L0,46.5818702 Z" id="Fill-4" fill="#E20E18"></path>
                    <g id="Group-8">
                        <mask id="mask-4" fill="white">
                            <use xlink:href="#path-3"></use>
                        </mask>
                        <g id="Clip-7"></g>
                        <path d="M87.8724519,48.154193 L82.3768852,48.154193 C79.2081493,48.154193 76.0406335,48.1431738 72.8706774,48.1652123 C72.347232,48.1688853 72.1349255,47.966866 71.8286672,47.5371157 C69.5152581,44.281543 66.6222767,41.9001632 62.4542358,41.5034706 C61.9368912,41.4532719 61.0901054,41.1826884 61.0193366,40.8704766 C60.8375338,40.0734184 61.6159911,39.8358926 62.2590115,39.6669309 C63.1082376,39.4440975 63.9733257,39.2812576 64.8201115,39.051078 C66.4307127,38.6164302 66.6234968,38.356866 66.6710828,36.6868392 C66.6857246,36.2068902 66.6735231,35.7269411 66.6735231,35.4551333 C64.8176712,35.0045689 63.0948159,34.6813379 61.4366287,34.1524144 C60.1237446,33.7349078 60.0981214,33.4471832 60.7118581,32.2497593 C61.7587489,30.2075272 61.8502604,27.9791924 61.9527532,25.7545306 C62.0820893,22.9140159 62.0027794,20.0428922 62.3944484,17.2391083 C62.9728006,13.1105671 65.8096551,10.8736617 70.1851218,10.4316679 C71.5529128,10.2933152 73.0073345,10.3986101 74.348282,10.7132706 C77.9062466,11.5507327 79.8389681,14.0667921 80.3233686,17.5562175 C80.6491494,19.8996421 80.4734474,22.3104065 80.5771604,24.6881133 C80.6528098,26.4475183 80.7284593,28.2167182 80.9834711,29.9553091 C81.1164677,30.863784 81.5252188,31.7845026 82.0145,32.5729903 C82.5062214,33.361478 82.2670715,33.763068 81.5545025,33.9516194 C80.0829986,34.3409659 78.589532,34.6470558 77.0960654,34.950697 C76.725139,35.0266073 76.324929,34.9617163 76.0076894,34.9617163 C75.9222787,35.0804792 75.8942152,35.1025176 75.8893346,35.1294536 C75.3671093,38.0213914 75.884454,38.8049817 78.7213085,39.5273539 C80.1379055,39.8885401 81.6191706,40.1309633 82.9344949,40.7308996 C85.9995179,42.1278941 87.7309142,44.5447804 87.8724519,48.154193" id="Fill-6" fill="#E20E18" mask="url(#mask-4)"></path>
                    </g>
                </g>
            </g>
        </g>
    </g>
</svg>