<?xml version="1.0" encoding="UTF-8"?>
<svg width="157px" height="157px" viewBox="0 0 157 157" version="1.1" xmlns="http://www.w3.org/2000/svg" xmlns:xlink="http://www.w3.org/1999/xlink">
    <!-- Generator: Sketch 41 (35326) - http://www.bohemiancoding.com/sketch -->
    <title>Oval 3 Copy 10 + Page 1 Copy 5</title>
    <desc>Created with Sketch.</desc>
    <defs></defs>
    <g id="Welcome" stroke="none" stroke-width="1" fill="none" fill-rule="evenodd">
        <g id="lest_site_v04" transform="translate(-1048.000000, -2099.000000)">
            <g id="Oval-3-Copy-10-+-Page-1-Copy-5" transform="translate(1049.000000, 2100.000000)">
                <ellipse id="Oval-3-Copy-10" stroke="#E30714" stroke-width="2" fill="#FFFFFF" cx="77.1919974" cy="77.1616528" rx="77.1386501" ry="77.1616528"></ellipse>
                <g id="Page-1-Copy-5" transform="translate(29.743724, 49.191617)" fill="#E20E18">
                    <path d="M18.8949556,53.7072876 C18.3690118,46.0429267 22.5839849,40.0487604 30.5081344,37.3981426 C32.5546496,36.7136366 34.7315904,36.425091 36.8152186,35.8416813 C37.914823,35.5341802 38.3379108,35.9785825 38.7811457,36.8715996 C40.3197435,39.9687259 41.9346879,43.0279411 43.5263041,46.0976872 C43.7701894,46.5673636 44.0480065,47.0191376 44.4954828,47.4445844 C44.4318606,44.6244197 46.3702181,41.865334 44.5866747,38.8872064 L50.8131708,38.8872064 C48.8377004,41.7105303 51.036909,44.5559691 50.9372342,47.5098757 C51.1853609,47.1528795 51.4780232,46.8190512 51.6763125,46.4367809 C53.3294302,43.258567 54.991031,40.0845654 56.5868887,36.8779181 C57.0269425,35.9922726 57.4351852,35.630011 58.5475139,35.8269381 C62.5546544,36.534612 66.4112222,37.5603179 69.8319778,39.8707889 C74.7680029,43.2059127 76.7561977,47.9142608 76.4762599,53.7072876 L18.8949556,53.7072876 Z" id="Fill-1"></path>
                    <path d="M95.5440559,49.2512589 C89.5625054,49.2596836 83.5820153,49.2691614 77.6004648,49.2723206 C77.4180811,49.2723206 77.2367577,49.2112417 77.2049466,49.2059762 C75.5242592,45.6497043 73.8902281,42.1924226 72.17879,38.5708593 L76.9737858,38.5708593 C75.6589262,40.6622884 77.028925,42.6736829 77.1773769,44.8135539 C78.4402783,42.3788188 79.7477152,39.9651454 80.9427529,37.4977646 C81.400833,36.5552525 81.8525509,36.3277859 82.93731,36.5384031 C87.5234128,37.4314201 91.7659555,38.8257062 94.1581516,43.2549865 C94.7371139,44.324922 95.0880966,45.5170155 95.5440559,46.6522423 L95.5440559,49.2512589 Z" id="Fill-3"></path>
                    <path d="M47.8553731,33.7145526 C43.6149511,33.3575564 40.9534209,31.0386608 38.7754197,28.0573739 C37.9801418,26.9695359 37.4287491,25.7058326 36.7607156,24.525323 C36.0163354,23.2058061 35.872125,21.6651411 34.3091388,20.6331167 C33.5796038,20.1518563 33.3176923,17.7223866 33.8871113,16.8483251 C34.7460115,15.5319674 34.8541693,14.2935381 34.9697497,12.9129422 C35.2889212,9.08076175 36.6292296,5.71509846 39.6841573,3.20138185 C45.6487419,-1.70494645 57.0000091,-0.665550438 59.6212452,9.39142216 C60.0220653,10.929981 60.1005327,12.5496275 60.4430324,14.1060888 C60.6169332,14.8948503 60.9318632,15.7078328 61.388883,16.3691709 C62.2679302,17.6434051 62.0749427,19.8348774 60.9859421,20.9932721 C60.3094257,21.713583 59.6859278,22.5528927 59.2872285,23.4469628 C57.3923462,27.7045901 54.7255142,31.2261101 50.2645351,33.0784886 C49.4226008,33.4291663 48.4841729,33.5534304 47.8553731,33.7145526" id="Fill-5"></path>
                    <path d="M74.9061692,10.9236625 C80.0457854,10.9657859 83.4676013,14.5599689 83.9394662,20.3140316 C84.0030885,21.1038462 84.5555415,21.8494311 84.6477938,22.6402988 C84.7527705,23.5543776 84.8291172,24.586402 84.5046438,25.4046499 C84.0455033,26.5630447 83.2481046,27.5992814 82.51963,28.6355182 C81.5663568,29.9929462 80.7000341,31.4651606 79.5134794,32.5951221 C76.0778787,35.8660076 72.2700879,35.6248509 69.1685039,32.0085531 C68.2534041,30.9417768 67.6086987,29.6454278 66.8346282,28.4585997 C66.2174925,27.5139815 65.4837161,26.6262298 65.0033682,25.6184264 C64.6555666,24.8854785 64.4000173,23.9619219 64.5187788,23.1868505 C64.7753885,21.529293 65.3331435,19.9201773 65.7116958,18.2784161 C66.7688852,13.7006506 70.2691686,10.8857514 74.9061692,10.9236625" id="Fill-7"></path>
                    <path d="M20.3954861,35.2309967 C19.0710832,34.5570215 17.4497766,34.134734 16.4286397,33.1174528 C14.9282153,31.6220705 13.7130306,29.782329 12.6452374,27.936269 C11.7131717,26.3239941 11.1670808,21.3007733 11.4724675,19.4810404 C12.1055088,15.7173106 13.8105847,12.6896879 17.679877,11.4144006 C23.6720312,9.4409172 28.8540623,12.886615 29.7564377,19.2935911 C29.9218555,20.4677821 30.552776,21.5798411 30.7054693,22.7540321 C30.8221101,23.6617924 30.6980467,24.6874983 30.3693319,25.5436573 C29.9918399,26.530399 29.3577383,27.4581679 28.6812219,28.2869467 C27.1405034,30.1782894 25.6167509,32.1085963 23.8575961,33.7872156 C23.079284,34.5285882 21.7463982,34.6960289 20.3954861,35.2309967" id="Fill-9"></path>
                    <path d="M23.1002794,38.6087704 C21.5903117,41.9670621 20.1683547,45.1852934 18.6774736,48.371932 C18.4940295,48.762627 17.9405161,49.2375688 17.5545412,49.2417811 C11.7172011,49.2965416 5.87986097,49.2796923 0.0584264196,49.2796923 C-0.6223315,42.2355991 4.74738518,37.3134745 13.7955274,36.3772809 C15.2302088,39.1332073 16.6945806,41.9481066 18.1600128,44.7630058 C18.2755932,44.7398379 18.392234,44.71667 18.5078143,44.6935021 C18.6742925,42.711594 18.8397103,40.7296859 19.0178526,38.6087704 L23.1002794,38.6087704 Z" id="Fill-11"></path>
                </g>
            </g>
        </g>
    </g>
</svg>